<svg width="24" height="24" viewBox="0 0 24 24" fill="none" xmlns="http://www.w3.org/2000/svg">
<path fill-rule="evenodd" clip-rule="evenodd" d="M12 21C7.125 21 3 16.875 3 12C3 8.89234 4.67627 6.08945 7.15451 4.46562C8.48099 3.59646 10.0372 3.0651 11.6892 3.00559L12 3V6.75C9.10051 6.75 6.75 9.10051 6.75 12C6.75 14.8995 9.10051 17.25 12 17.25C14.8391 17.25 17.1518 14.9964 17.247 12.1805L17.25 12H21C21 16.8 17.0009 20.8729 12.2245 20.9971L12 21Z" stroke="#65185C" stroke-width="2" stroke-linecap="round"/>
<path fill-rule="evenodd" clip-rule="evenodd" d="M15.0006 7.69119L15.0003 3.5128C16.2044 3.91976 17.3294 4.62383 18.3753 5.625C19.3399 6.54825 20.0166 7.5898 20.4054 8.74965L20.4844 9L16.3089 8.9994C15.9535 8.49 15.51 8.04657 15.0006 7.69119Z" fill="#65185C" stroke="#65185C" stroke-width="2" stroke-linecap="round" stroke-linejoin="round"/>
</svg>
