<svg width="12" height="12" viewBox="0 0 12 12" fill="none" xmlns="http://www.w3.org/2000/svg">
<path fill-rule="evenodd" clip-rule="evenodd" d="M11.2117 8.64608C11.1612 8.76858 11.0637 8.86608 10.9412 8.91658C10.8802 8.94208 10.8152 8.95508 10.7502 8.95508H8.2957C8.0192 8.95508 7.7957 8.73158 7.7957 8.45508C7.7957 8.17858 8.0192 7.95508 8.2957 7.95508H9.5427L6.8637 5.2771L5.1722 6.9691C4.98469 7.15658 4.65319 7.15658 4.46519 6.9691L1.39619 3.8986C1.20119 3.7031 1.20119 3.3866 1.39669 3.1916C1.49419 3.0941 1.62219 3.0451 1.75019 3.0451C1.87819 3.0451 2.00619 3.0941 2.10369 3.1916L4.81869 5.9081L6.5097 4.2166C6.7052 4.0211 7.0217 4.0211 7.2172 4.2166L10.2502 7.24858V6.0001C10.2502 5.7236 10.4737 5.5001 10.7502 5.5001C11.0267 5.5001 11.2502 5.7236 11.2502 6.0001V8.45508C11.2502 8.52008 11.2367 8.58508 11.2117 8.64608Z" fill="#114C50"/>
</svg>
