<svg width="23" height="23" viewBox="0 0 23 23" fill="none" xmlns="http://www.w3.org/2000/svg">
<path d="M15.3233 4.2421C14.9328 4.63263 14.9328 5.26579 15.3233 5.65632L16.6243 6.95728C17.0148 7.34781 17.648 7.34781 18.0385 6.95728L20.7184 4.27732C21.7407 6.41824 21.3665 9.05942 19.5936 10.8326C18.1819 12.2442 16.2196 12.7685 14.398 12.4084L6.46306 20.3433C5.21342 21.5929 3.18702 21.5927 1.9373 20.3433C0.687675 19.0936 0.687668 17.0672 1.9373 15.8175L9.87085 7.88398C9.5099 6.06172 10.0351 4.09855 11.4473 2.68633C13.2209 0.913 15.8629 0.5384 18.004 1.56145L15.3233 4.2421ZM5.25808 17.0225C5.04894 16.8135 4.70978 16.8129 4.50056 17.0218C4.29143 17.231 4.29146 17.5708 4.50056 17.78C4.70977 17.9892 5.04954 17.9892 5.25877 17.78C5.46772 17.5708 5.46721 17.2316 5.25808 17.0225Z" fill="white"/>
<path d="M20.7184 4.27732L21.6209 3.84644L21.0114 2.57012L20.0113 3.57021L20.7184 4.27732ZM19.5936 10.8326L20.3007 11.5397L20.3007 11.5396L19.5936 10.8326ZM14.398 12.4084L14.5919 11.4273L14.0683 11.3238L13.6909 11.7013L14.398 12.4084ZM6.46306 20.3433L7.17015 21.0504L7.17017 21.0504L6.46306 20.3433ZM1.9373 20.3433L1.23018 21.0504L1.23027 21.0505L1.9373 20.3433ZM1.9373 15.8175L1.2302 15.1104L1.23018 15.1104L1.9373 15.8175ZM9.87085 7.88398L10.578 8.59109L10.9555 8.2135L10.8518 7.68968L9.87085 7.88398ZM11.4473 2.68633L10.7403 1.97918L10.7402 1.97923L11.4473 2.68633ZM18.004 1.56145L18.7111 2.26856L19.7109 1.26876L18.4351 0.659163L18.004 1.56145ZM5.25808 17.0225L5.96519 16.3154L5.96499 16.3152L5.25808 17.0225ZM4.50056 17.0218L3.79397 16.3142L3.79335 16.3148L4.50056 17.0218ZM4.50056 17.78L3.79326 18.4869L3.79346 18.4871L4.50056 17.78ZM5.25877 17.78L5.96577 18.4872L5.96639 18.4866L5.25877 17.78ZM15.3233 4.2421L14.6162 3.535C13.8351 4.31605 13.8351 5.58238 14.6162 6.36342L15.3233 5.65632L16.0304 4.94921L15.3233 4.2421ZM15.3233 5.65632L14.6162 6.36342L15.9172 7.66439L16.6243 6.95728L17.3314 6.25018L16.0304 4.94921L15.3233 5.65632ZM16.6243 6.95728L15.9172 7.66439C16.6982 8.44544 17.9645 8.44544 18.7456 7.66439L18.0385 6.95728L17.3314 6.25018L16.6243 6.95728ZM18.0385 6.95728L18.7456 7.66439L21.4256 4.98443L20.7184 4.27732L20.0113 3.57021L17.3314 6.25018L18.0385 6.95728ZM20.7184 4.27732L19.816 4.70821C20.6616 6.47911 20.3501 8.66157 18.8864 10.1255L19.5936 10.8326L20.3007 11.5396C22.3828 9.45726 22.8198 6.35736 21.6209 3.84644L20.7184 4.27732ZM19.5936 10.8326L18.8865 10.1254C17.721 11.2909 16.1009 11.7256 14.5919 11.4273L14.398 12.4084L14.2041 13.3894C16.3384 13.8113 18.6428 13.1975 20.3007 11.5397L19.5936 10.8326ZM14.398 12.4084L13.6909 11.7013L5.75596 19.6362L6.46306 20.3433L7.17017 21.0504L15.1051 13.1155L14.398 12.4084ZM6.46306 20.3433L5.75597 19.6362C4.89691 20.4952 3.5036 20.4952 2.64434 19.6361L1.9373 20.3433L1.23027 21.0505C2.87044 22.6903 5.52994 22.6905 7.17015 21.0504L6.46306 20.3433ZM1.9373 20.3433L2.64443 19.6362C1.7853 18.777 1.7853 17.3838 2.64443 16.5246L1.9373 15.8175L1.23018 15.1104C-0.409959 16.7507 -0.409948 19.4102 1.23018 21.0504L1.9373 20.3433ZM1.9373 15.8175L2.64441 16.5246L10.578 8.59109L9.87085 7.88398L9.16374 7.17687L1.2302 15.1104L1.9373 15.8175ZM9.87085 7.88398L10.8518 7.68968C10.5529 6.18064 10.9882 4.55969 12.1544 3.39343L11.4473 2.68633L10.7402 1.97923C9.08209 3.6374 8.46691 5.9428 8.88991 8.07828L9.87085 7.88398ZM11.4473 2.68633L12.1544 3.39349C13.6188 1.92924 15.802 1.61761 17.5728 2.46374L18.004 1.56145L18.4351 0.659163C15.9238 -0.540807 12.823 -0.10324 10.7403 1.97918L11.4473 2.68633ZM18.004 1.56145L17.2968 0.854344L14.6162 3.535L15.3233 4.2421L16.0304 4.94921L18.7111 2.26856L18.004 1.56145ZM5.25808 17.0225L5.96499 16.3152C5.36673 15.7173 4.39495 15.7141 3.79397 16.3142L4.50056 17.0218L5.20716 17.7294C5.0246 17.9117 4.73114 17.9097 4.55117 17.7298L5.25808 17.0225ZM4.50056 17.0218L3.79335 16.3148C3.19375 16.9146 3.19398 17.8873 3.79326 18.4869L4.50056 17.78L5.20787 17.0731C5.38894 17.2543 5.38911 17.5474 5.20778 17.7288L4.50056 17.0218ZM4.50056 17.78L3.79346 18.4871C4.3933 19.087 5.36614 19.0867 5.96577 18.4872L5.25877 17.78L4.55177 17.0728C4.73293 16.8917 5.02625 16.8915 5.20767 17.0729L4.50056 17.78ZM5.25877 17.78L5.96639 18.4866C6.56635 17.8858 6.56367 16.9139 5.96519 16.3154L5.25808 17.0225L4.55097 17.7296C4.37076 17.5494 4.36909 17.2558 4.55115 17.0734L5.25877 17.78Z" fill="#65185C"/>
</svg>
