<svg width="22" height="19" viewBox="0 0 22 19" fill="none" xmlns="http://www.w3.org/2000/svg">
<path d="M2 1H10C10.5523 1 11 1.44772 11 2V18H2C1.44771 18 1 17.5523 1 17V2L1.00488 1.89746C1.05621 1.39333 1.48232 1 2 1Z" stroke="#65185C" stroke-width="2"/>
<rect x="11" y="6" width="10" height="12" rx="1" stroke="#65185C" stroke-width="2"/>
<rect x="4" y="5" width="1" height="2" fill="#65185C"/>
<rect x="4" y="9" width="1" height="2" fill="#65185C"/>
<rect x="14" y="9" width="1" height="2" fill="#65185C"/>
<rect x="4" y="13" width="1" height="2" fill="#65185C"/>
<rect x="14" y="13" width="1" height="2" fill="#65185C"/>
<rect x="7" y="5" width="1" height="2" fill="#65185C"/>
<rect x="7" y="9" width="1" height="2" fill="#65185C"/>
<rect x="17" y="9" width="1" height="2" fill="#65185C"/>
<rect x="7" y="13" width="1" height="2" fill="#65185C"/>
<rect x="17" y="13" width="1" height="2" fill="#65185C"/>
</svg>
