<svg width="29" height="26" viewBox="0 0 29 26" fill="none" xmlns="http://www.w3.org/2000/svg">
<path d="M19.5527 0C21.2096 0 22.5527 1.34315 22.5527 3C22.5527 4.33981 21.6742 5.47321 20.4619 5.8584V7.59668H21.1436C21.52 7.59668 21.825 7.90189 21.8252 8.27832C21.8252 8.65488 21.5201 8.95996 21.1436 8.95996H20.4619V9.45605C20.5332 9.43077 20.6095 9.41504 20.6895 9.41504H21.1436C21.5201 9.41504 21.8252 9.72012 21.8252 10.0967C21.8252 10.4732 21.5201 10.7783 21.1436 10.7783H20.6895C20.6094 10.7783 20.5333 10.7617 20.4619 10.7363V10.7783C20.4619 11.2804 20.0548 11.6875 19.5527 11.6875C19.0507 11.6875 18.6436 11.2804 18.6436 10.7783V5.8584C17.4314 5.47314 16.5527 4.33973 16.5527 3C16.5527 1.34319 17.8959 6.597e-05 19.5527 0Z" fill="#65185C"/>
<path d="M4.83026 11.8751C5.30856 11.599 5.92015 11.7629 6.19629 12.2411L10.6963 20.0354C10.9724 20.5137 10.8086 21.1253 10.3303 21.4014L6.86616 23.4014L1.36616 13.8751L4.83026 11.8751Z" stroke="#65185C" stroke-width="2"/>
<path d="M6.6967 13.1071C7.24397 10.8192 10.6795 9.38939 12.9169 11.1772C13.7165 11.8161 14.4866 12.5518 15.4677 12.8433L17.6936 13.5047C18.6747 13.7962 19.5067 14.4526 20.0185 15.339L20.2215 15.6907M20.2215 15.6907L20.0706 15.7778C19.1194 16.327 17.9843 16.4609 16.9314 16.1481L14.6194 15.4612M20.2215 15.6907L24.131 13.4336C24.254 13.3625 24.4009 13.3452 24.5371 13.3857L25.5608 13.6899C26.5896 13.9956 26.7533 15.3838 25.8238 15.9205L20.7503 18.8497C19.7991 19.3989 18.6639 19.5327 17.611 19.2199L12.658 17.7482C11.3376 17.3559 10.3531 17.9243 9.6967 18.3033" stroke="#65185C" stroke-width="2"/>
<rect x="4.96484" y="14.1072" width="1" height="1" rx="0.5" transform="rotate(60 4.96484 14.1072)" fill="#65185C"/>
</svg>
