<svg width="12" height="12" viewBox="0 0 12 12" fill="none" xmlns="http://www.w3.org/2000/svg">
<path fill-rule="evenodd" clip-rule="evenodd" d="M11.2117 3.35392C11.1612 3.23142 11.0637 3.13392 10.9412 3.08342C10.8802 3.05792 10.8152 3.04492 10.7502 3.04492H8.2957C8.0192 3.04492 7.7957 3.26842 7.7957 3.54492C7.7957 3.82142 8.0192 4.04492 8.2957 4.04492H9.5427L6.8637 6.7229L5.1722 5.0309C4.98469 4.84342 4.65319 4.84342 4.46519 5.0309L1.39619 8.1014C1.20119 8.2969 1.20119 8.6134 1.39669 8.8084C1.49419 8.9059 1.62219 8.9549 1.75019 8.9549C1.87819 8.9549 2.00619 8.9059 2.10369 8.8084L4.81869 6.0919L6.5097 7.7834C6.7052 7.9789 7.0217 7.9789 7.2172 7.7834L10.2502 4.75142V5.9999C10.2502 6.2764 10.4737 6.4999 10.7502 6.4999C11.0267 6.4999 11.2502 6.2764 11.2502 5.9999V3.54492C11.2502 3.47992 11.2367 3.41492 11.2117 3.35392Z" fill="#114C50"/>
</svg>
